<?xml version="1.0" standalone="no"?>
<!DOCTYPE svg PUBLIC "-//W3C//DTD SVG 20010904//EN"
 "http://www.w3.org/TR/2001/REC-SVG-20010904/DTD/svg10.dtd">
<svg version="1.0" xmlns="http://www.w3.org/2000/svg"
 width="1251.000000pt" height="1251.000000pt" viewBox="0 0 1251.000000 1251.000000"
 preserveAspectRatio="xMidYMid meet">
<metadata>
Created by potrace 1.11, written by Peter Selinger 2001-2013
</metadata>
<g transform="translate(0.000000,1251.000000) scale(0.100000,-0.100000)"
fill="#000000" stroke="none">
<path d="M9110 11000 c-19 -5 -53 -11 -75 -14 -22 -3 -76 -13 -119 -21 -44 -8
-93 -18 -110 -21 -17 -2 -69 -12 -116 -20 -47 -9 -92 -17 -100 -19 -8 -1 -35
-6 -60 -10 -25 -4 -54 -9 -65 -11 -50 -10 -133 -24 -169 -30 -21 -3 -48 -8
-60 -10 -33 -7 -178 -34 -216 -40 -274 -42 -537 -237 -650 -481 -40 -87 -39
-84 -99 -238 -111 -289 -202 -521 -210 -540 -5 -11 -21 -52 -36 -91 l-27 -71
-66 67 c-37 37 -90 83 -119 104 -55 39 -58 44 -68 117 -3 25 -8 57 -10 70 -2
13 -6 41 -9 62 -56 368 -87 530 -112 583 -40 84 -120 165 -201 202 -144 66
-229 59 -488 -42 -93 -37 -228 -90 -300 -117 -71 -28 -143 -57 -160 -64 -30
-13 -704 -276 -1085 -423 -468 -181 -483 -187 -517 -218 -41 -39 -43 -74 -9
-206 87 -334 263 -670 489 -932 38 -45 73 -82 78 -84 21 -8 6 -30 -25 -36
-110 -21 -234 -125 -289 -244 -29 -61 -31 -76 -32 -172 0 -102 1 -109 37 -180
67 -136 178 -222 316 -245 l43 -7 -68 -41 c-427 -256 -774 -722 -899 -1207
-70 -274 -68 -207 -68 -2020 0 -1495 2 -1703 20 -1825 10 -73 65 -249 106
-343 104 -239 312 -475 553 -630 57 -36 231 -114 315 -141 223 -70 111 -66
1770 -66 l1495 1 105 23 c365 79 670 276 882 573 132 183 230 436 254 656 10
85 10 3368 1 3442 -4 30 -10 75 -13 100 -5 38 -27 150 -39 200 -50 201 -145
420 -260 600 -25 40 -50 77 -55 84 -153 192 -215 259 -344 371 -83 71 -310
225 -333 225 -28 0 -9 16 57 48 150 71 240 215 241 384 1 88 -37 198 -89 258
-45 53 -93 94 -133 115 -91 47 -145 54 -417 53 -139 -1 -255 2 -258 5 -5 5
137 383 176 472 13 27 67 167 95 240 31 85 234 604 250 640 7 17 29 73 49 126
21 54 49 115 63 136 38 60 106 101 194 118 106 20 238 44 279 50 19 3 71 13
115 21 82 16 92 18 160 28 22 4 60 11 85 16 25 5 113 21 195 35 323 56 346 62
386 101 56 55 63 92 40 219 -6 33 -13 76 -16 95 -16 101 -29 143 -53 171 -45
54 -112 70 -202 49z"/>
</g>
</svg>
